# xmcd CD database file
#
# Track frame offsets:
#	150
#	13812
#	39603
#	65015
#	78201
#	94562
#	155296
#	176170
#	205642
#	222034
#	247922
#	266784
#	282794
#
# Disc length: 4011 seconds
#
# Revision: 3
# Processed by: cddbd v1.4PL0 Copyright (c) Steve Scherf et al.
# Submitted via: CDex 1.51
#
DISCID=ab0fa90d
DTITLE=Bornemissza Mária - Gershwin centenárium'98
DYEAR=1997
DGENRE=Jazz
TTITLE0=It's Wonderful
TTITLE1=The Man I Love
TTITLE2=But Not For Me
TTITLE3=Love Walked In
TTITLE4=Embraceable You
TTITLE5=In Memoriam George Gerswin (parafrase)
TTITLE6=I Love You Progy
TTITLE7=Summertime
TTITLE8=Love Is Here To Stay
TTITLE9=Someone To Watch Over Me
TTITLE10=Oh, Lady Be Good
TTITLE11=Soon
TTITLE12=Somebody Loves Me
EXTD=YEAR: 1997
EXTT0=
EXTT1=
EXTT2=
EXTT3=
EXTT4=
EXTT5=
EXTT6=
EXTT7=
EXTT8=
EXTT9=
EXTT10=
EXTT11=
EXTT12=
PLAYORDER=
